<?xml version="1.0" encoding="UTF-8"?>
<!DOCTYPE svg PUBLIC "-//W3C//DTD SVG 1.1//EN" "http://www.w3.org/Graphics/SVG/1.1/DTD/svg11.dtd">
<!-- Creator: CorelDRAW X7 -->
<svg xmlns="http://www.w3.org/2000/svg" xml:space="preserve" width="70px" height="271px" version="1.1" style="shape-rendering:geometricPrecision; text-rendering:geometricPrecision; image-rendering:optimizeQuality; fill-rule:evenodd; clip-rule:evenodd"
viewBox="0 0 10 37"
 xmlns:xlink="http://www.w3.org/1999/xlink">
 <defs>
  <style type="text/css">
   <![CDATA[
    .fil0 {fill:white}
   ]]>
  </style>
 </defs>
 <g id="Layer_x0020_1">
  <metadata id="CorelCorpID_0Corel-Layer"/>
  <path class="fil0" d="M4 0c1,1 1,6 0,7 0,0 1,0 1,2 0,1 -1,2 -1,3 0,-1 1,1 1,4 0,1 -1,1 -1,2 0,0 0,0 0,0l0 0c-1,2 -3,4 -4,6 1,-2 0,-1 1,2 0,3 2,7 3,11 -1,-4 -3,-9 -2,-12 0,-3 2,-5 1,-3 0,0 1,-1 1,-2 0,0 0,0 0,0 0,1 0,1 0,1 0,0 0,1 0,1 0,1 -1,2 -2,2 1,0 1,0 1,1 0,1 0,2 0,3 0,-1 0,-3 0,-3 0,-1 1,-2 0,-1 1,-1 1,-1 1,-2 0,0 0,-1 0,-1 0,0 1,0 1,-1 0,0 0,0 0,0 0,0 0,-1 0,-2 0,0 0,0 0,0 0,-1 1,-2 1,-3 1,-2 0,-3 0,-2 0,-1 1,-2 1,-3 0,0 0,1 0,1 0,0 0,0 0,1 1,1 1,2 2,2 -1,0 0,0 0,1 0,2 -1,3 -1,5 0,-2 1,-3 1,-4 0,-1 0,-2 1,-1 -1,-1 -2,-2 -2,-3 0,-1 0,-2 0,-1 0,-1 0,-1 0,-2 0,0 0,-1 0,-1 0,-1 0,-2 0,-2 0,-1 0,-4 0,-5 0,0 -1,-1 -2,-1 -1,0 -2,1 -2,0z"/>
 </g>
</svg>
