<?xml version="1.0" encoding="UTF-8"?>
<!DOCTYPE svg PUBLIC "-//W3C//DTD SVG 1.1//EN" "http://www.w3.org/Graphics/SVG/1.1/DTD/svg11.dtd">
<!-- Creator: CorelDRAW X7 -->
<svg xmlns="http://www.w3.org/2000/svg" xml:space="preserve" width="340px" height="596px" version="1.1" style="shape-rendering:geometricPrecision; text-rendering:geometricPrecision; image-rendering:optimizeQuality; fill-rule:evenodd; clip-rule:evenodd"
viewBox="0 0 1022 1792"
 xmlns:xlink="http://www.w3.org/1999/xlink">
 <defs>
  <style type="text/css">
   <![CDATA[
    .fil0 {fill:url(#id0)}
   ]]>
  </style>
  <linearGradient id="id0" gradientUnits="userSpaceOnUse" x1="511.008" y1="-0.00355032" x2="511.008" y2="1792.02">
   <stop offset="0" style="stop-opacity:1; stop-color:#00B052"/>
   <stop offset="0.439216" style="stop-opacity:1; stop-color:#65C965"/>
   <stop offset="1" style="stop-opacity:1; stop-color:#CAE378"/>
  </linearGradient>
 </defs>
 <g id="Layer_x0020_1">
  <metadata id="CorelCorpID_0Corel-Layer"/>
  <path class="fil0" d="M334 752c9,67 25,144 55,234 26,78 66,137 94,209 13,35 20,95 27,120 9,33 16,134 36,229 28,126 68,247 65,248 -3,1 -47,-124 -78,-245 -23,-89 -34,-178 -40,-199l-32 -126c-20,-75 -83,-153 -105,-224 -7,-23 -15,-55 -24,-89 1,14 2,29 3,43 7,83 32,149 42,226 4,37 -3,97 -3,123 1,33 -15,133 -18,230 -4,129 6,257 3,257 -3,0 -15,-132 -17,-257 -1,-91 9,-181 9,-202l-2 -130c-1,-78 -44,-168 -49,-243 -2,-47 -2,-124 0,-192l-2 -11 2 -1c2,-37 3,-70 4,-93 4,-68 16,-109 25,-144 8,-36 14,-65 16,-91 2,-27 -1,-51 -8,-77 -8,-25 -20,-52 -44,-73 -23,-22 -56,-40 -100,-65 -44,-25 -98,-57 -133,-82 -35,-25 -50,-42 -56,-58 -6,-16 -4,-31 0,-42 5,-11 12,-18 31,-22 19,-4 50,-5 87,-5 36,1 78,3 112,9 34,6 61,16 90,30 29,14 60,32 84,55 24,22 42,50 46,71 4,21 -6,35 -15,52 -10,18 -21,40 -25,58 -5,17 -4,30 3,22 6,-7 17,-35 35,-58 17,-22 40,-39 64,-52 24,-13 48,-21 75,-25 27,-4 57,-4 82,1 25,5 45,16 61,24 17,9 31,16 40,22 8,6 12,10 4,22 -16,24 -34,83 -131,111 -34,10 -72,23 -97,37 -25,15 -44,29 -49,35 -4,6 5,5 37,-2 33,-7 88,-19 134,-26 46,-6 81,-6 118,1 36,8 73,23 104,39 32,15 57,31 78,50 21,19 37,41 44,62 8,21 7,41 3,55 -3,15 -9,24 -34,28 -25,4 -69,3 -117,-2 -47,-6 -99,-15 -143,-29 -43,-14 -78,-32 -111,-55 -33,-22 -64,-49 -91,-64 -27,-15 -50,-18 -69,-19 -18,0 -32,2 -52,34 -21,33 -47,95 -58,171 -4,29 -8,61 -10,95z"/>
 </g>
</svg>
